<svg xmlns="http://www.w3.org/2000/svg" width="119.45" height="39.651" viewBox="0 0 119.45 39.651">
  <g id="Group_11747" data-name="Group 11747" transform="translate(-1661 -33)">
    <g id="Group_4" data-name="Group 4" transform="translate(1661 38.3)">
      <path id="Path_2" data-name="Path 2" d="M684.351,1265.257h-6.233l-1.45,2.708c-.58,1.1-2.754.693-2.126-.409l5.316-9.511a1.767,1.767,0,0,1,2.9,0l5.267,9.511c.58,1.039-1.546,1.543-2.174.441Zm-5.412-1.354h4.687l-2.32-4.283Z" transform="translate(-674.429 -1238.823)" fill="#0549eb"/>
      <path id="Path_3" data-name="Path 3" d="M902.514,1267.044c0,2.646-4.349,3.779-7.345,2.456-1.982-.85-.29-2.016.725-1.354a3.619,3.619,0,0,0,2.078.536c1.547.031,2.223-.662,2.223-2.016v-7.046c0-1.039,2.32-1.039,2.32,0Z" transform="translate(-877.996 -1240.26)" fill="#004def"/>
      <path id="Path_4" data-name="Path 4" d="M1071.742,1259.62v9.655c0,1.039,2.32,1.039,2.32,0v-9.655C1074.062,1258.581,1071.742,1258.581,1071.742,1259.62Z" transform="translate(-1042.363 -1240.26)" fill="#004def"/>
      <path id="Path_5" data-name="Path 5" d="M1170.462,1260.87c0-1.134,2.32-1.134,2.32,0v7.473c0,.6.1.727,1.595.727h6a1.038,1.038,0,1,1,0,2.076h-6c-3.189,0-3.914-.882-3.914-2.677Z" transform="translate(-1133.783 -1241.352)" fill="#004def"/>
      <path id="Path_6" data-name="Path 6" d="M718.333,1014.143a10.273,10.273,0,0,0-6.5-.258l-.721.2a.987.987,0,0,0-.455.265.662.662,0,0,0-.2.458.622.622,0,0,0,.159.419,1.11,1.11,0,0,0,.394.284,1.35,1.35,0,0,0,.936.034l.65-.187a8.1,8.1,0,0,1,2.191-.292,6.325,6.325,0,0,1,2.449.439,2.4,2.4,0,0,1,.813.518.759.759,0,0,1,.245.529v1.039H692.059a2.573,2.573,0,0,1-.812-.143c-.215-.091-.26-.188-.271-.247a1.562,1.562,0,0,0,.02-.274v-8.463a.7.7,0,0,0-.351-.59,1.38,1.38,0,0,0-1.428,0,.7.7,0,0,0-.37.6v8.463a2.36,2.36,0,0,1-.382,1.289,2.8,2.8,0,0,1-1.185,1,4.654,4.654,0,0,1-2.031.4,5.293,5.293,0,0,1-1.821-.315,3.1,3.1,0,0,1-1.36-.931,2.233,2.233,0,0,1-.505-1.5v-1.514a.7.7,0,0,0-.351-.591,1.392,1.392,0,0,0-1.43,0,.7.7,0,0,0-.368.6v1.514a3.674,3.674,0,0,0,.476,1.838,4.322,4.322,0,0,0,1.358,1.431,5.734,5.734,0,0,0,1.82.8,8.833,8.833,0,0,0,2.182.263,8.625,8.625,0,0,0,2.15-.263,5.975,5.975,0,0,0,1.809-.783,4.5,4.5,0,0,0,1.2-1.2,5.886,5.886,0,0,0,.832.148c.262.03.545.034.822.045v.028h27.307a1.228,1.228,0,0,0,.7-.2.7.7,0,0,0,.352-.591v-1.832a2.026,2.026,0,0,0-.611-1.428A3.965,3.965,0,0,0,718.333,1014.143Z" transform="translate(-679.044 -1007.669)" fill="#004def"/>
      <path id="Path_7" data-name="Path 7" d="M1153.62,1178.168h-.406a.64.64,0,0,0-.495.222.749.749,0,0,0-.183.507v.459a.737.737,0,0,0,.182.506.643.643,0,0,0,.5.223h.406a.649.649,0,0,0,.5-.223.745.745,0,0,0,.182-.506v-.459a.747.747,0,0,0-.182-.506A.643.643,0,0,0,1153.62,1178.168Z" transform="translate(-1117.184 -1165.552)" fill="#004def"/>
      <path id="Path_8" data-name="Path 8" d="M1270.451,1045.439a1.412,1.412,0,0,0-1.4,0,.682.682,0,0,0-.373.592v7.17a.682.682,0,0,0,.373.591,1.409,1.409,0,0,0,1.4,0,.682.682,0,0,0,.373-.591v-7.17A.682.682,0,0,0,1270.451,1045.439Z" transform="translate(-1224.736 -1042.466)" fill="#0549eb"/>
      <path id="Path_9" data-name="Path 9" d="M1246.14,1007.558H1241.8a.962.962,0,0,0,0,1.925h4.342a.962.962,0,0,0,0-1.925Z" transform="translate(-1198.954 -1007.558)" fill="#0549eb"/>
    </g>
    <g id="Group_5" data-name="Group 5" transform="translate(1717.793 33)">
      <path id="Path_10" data-name="Path 10" d="M999.372,604.662H967.263c-3.663,0-6.643-4.035-6.643-9V589.5Z" transform="translate(-936.721 -589.502)" fill="#0549eb"/>
      <path id="Path_11" data-name="Path 11" d="M859.226,693.536H814.651c-9.986,0-18.082,10.967-18.082,24.5h0Z" transform="translate(-796.569 -678.38)" fill="#37def5"/>
    </g>
  </g>
</svg>
