<svg xmlns="http://www.w3.org/2000/svg" width="72.887" height="61" viewBox="0 0 72.887 61">
  <g id="svgexport-10" transform="translate(0.505 -7.358)">
    <g id="Group_11704" data-name="Group 11704" transform="translate(0 7.858)">
      <g id="Group_11703" data-name="Group 11703">
        <path id="Path_12001" data-name="Path 12001" d="M22.995,35.05a19.037,19.037,0,0,0-5.26-.768,16.531,16.531,0,0,0-6.6,1.351C12.8,29.563,16.78,19.09,24.714,17.911a1.885,1.885,0,0,0,1.537-1.356l1.734-6.2a1.884,1.884,0,0,0-1.559-2.374,13.171,13.171,0,0,0-1.774-.121C15.129,7.858,5.7,17.8,1.718,32.031c-2.336,8.35-3.021,20.9,2.733,28.806,3.22,4.422,7.918,6.783,13.964,7.019l.074,0A16.715,16.715,0,0,0,22.995,35.05Z" transform="translate(0 -7.858)" fill="none" stroke="#0549eb" stroke-width="1"/>
        <path id="Path_12002" data-name="Path 12002" d="M81.669,42.943A16.754,16.754,0,0,0,71.62,35.05a19.035,19.035,0,0,0-5.26-.768,16.535,16.535,0,0,0-6.6,1.351C61.422,29.563,65.4,19.09,73.34,17.911a1.886,1.886,0,0,0,1.537-1.356l1.734-6.2a1.884,1.884,0,0,0-1.558-2.374,13.154,13.154,0,0,0-1.774-.121c-9.524,0-18.955,9.94-22.936,24.173-2.335,8.35-3.021,20.9,2.735,28.807C56.3,65.259,61,67.621,67.041,67.856l.075,0A16.715,16.715,0,0,0,81.669,42.943Z" transform="translate(-11.98 -7.858)" fill="none" stroke="#0549eb" stroke-width="1"/>
      </g>
    </g>
  </g>
</svg>
