<svg xmlns="http://www.w3.org/2000/svg" width="91" height="91" viewBox="0 0 91 91">
  <g id="Group_48" data-name="Group 48" transform="translate(-1566 -2295)">
    <rect id="Rectangle_13957" data-name="Rectangle 13957" width="91" height="91" rx="8" transform="translate(1566 2295)" fill="none"/>
    <g id="svgexport-6_6_" data-name="svgexport-6 (6)" transform="translate(1566 2295.004)">
      <g id="Page-1" transform="translate(0 -0.004)">
        <g id="_006---Secure-Payment" data-name="006---Secure-Payment">
          <path id="Shape" d="M87.355,7.249c-3.64-.237-12.707-1.238-18.2-5.426a3.943,3.943,0,0,0-4.83,0c-5.495,4.189-14.559,5.19-18.2,5.426a3.905,3.905,0,0,0-3.663,3.881V23.374a37.942,37.942,0,0,0,4.055,17.058H7.583A7.592,7.592,0,0,0,0,48.016v36.4A7.592,7.592,0,0,0,7.583,92h63.7a7.592,7.592,0,0,0,7.583-7.583V51.223A38.271,38.271,0,0,0,90.994,23.374V11.13a3.905,3.905,0,0,0-3.64-3.881ZM75.829,84.413a4.55,4.55,0,0,1-4.55,4.55H7.583a4.55,4.55,0,0,1-4.55-4.55v-36.4a4.55,4.55,0,0,1,4.55-4.55H48.227c.235.378.455.758.7,1.134a38.657,38.657,0,0,0,16.2,13.689,3.9,3.9,0,0,0,3.209,0,38.509,38.509,0,0,0,7.49-4.481ZM87.961,23.374A35.394,35.394,0,0,1,67.084,55.526a.874.874,0,0,1-.711,0A35.608,35.608,0,0,1,51.444,42.909,34.937,34.937,0,0,1,45.5,23.374V11.13a.861.861,0,0,1,.81-.854c4.867-.315,13.915-1.517,19.844-6.042a.937.937,0,0,1,1.154,0c5.931,4.522,14.979,5.727,19.846,6.042a.861.861,0,0,1,.81.854Z" transform="translate(0 -0.996)" fill="#0549eb"/>
          <path id="Shape-2" data-name="Shape" d="M65.81,10.427A41.288,41.288,0,0,1,51.684,6.042a3.01,3.01,0,0,0-2.968,0,41.275,41.275,0,0,1-14.128,4.384A3.033,3.033,0,0,0,32,13.42v7.55a31.925,31.925,0,0,0,5.428,17.841A32.805,32.805,0,0,0,48.72,49.169a3.073,3.073,0,0,0,2.951,0A32.286,32.286,0,0,0,68.4,20.97V13.42A3.033,3.033,0,0,0,65.81,10.427ZM65.365,20.97A29.252,29.252,0,0,1,50.2,46.521h-.015a29.767,29.767,0,0,1-10.243-9.4A28.9,28.9,0,0,1,35.033,20.97l-.017-7.546A43.592,43.592,0,0,0,50.2,8.68,43.586,43.586,0,0,0,65.365,13.42Z" transform="translate(16.53 1.408)" fill="#37def5"/>
          <path id="Shape-3" data-name="Shape" d="M9.55,44.133h6.066a4.55,4.55,0,0,0,4.55-4.55V36.55A4.55,4.55,0,0,0,15.616,32H9.55A4.55,4.55,0,0,0,5,36.55v3.033A4.55,4.55,0,0,0,9.55,44.133ZM8.033,36.55A1.517,1.517,0,0,1,9.55,35.033h6.066a1.517,1.517,0,0,1,1.517,1.517v3.033A1.517,1.517,0,0,1,15.616,41.1H9.55a1.517,1.517,0,0,1-1.517-1.517Z" transform="translate(2.583 15.019)" fill="#0549eb"/>
          <path id="Shape-4" data-name="Shape" d="M6.517,46.033h6.066a1.517,1.517,0,1,0,0-3.033H6.517a1.517,1.517,0,1,0,0,3.033Z" transform="translate(2.583 20.702)" fill="#0549eb"/>
          <path id="Shape-5" data-name="Shape" d="M20.583,43H14.517a1.517,1.517,0,1,0,0,3.033h6.066a1.517,1.517,0,1,0,0-3.033Z" transform="translate(6.715 20.702)" fill="#0549eb"/>
          <path id="Shape-6" data-name="Shape" d="M28.583,43H22.517a1.517,1.517,0,1,0,0,3.033h6.066a1.517,1.517,0,0,0,0-3.033Z" transform="translate(10.848 20.702)" fill="#0549eb"/>
          <path id="Shape-7" data-name="Shape" d="M36.583,43H30.517a1.517,1.517,0,1,0,0,3.033h6.066a1.517,1.517,0,1,0,0-3.033Z" transform="translate(14.981 20.702)" fill="#0549eb"/>
          <path id="Shape-8" data-name="Shape" d="M46.1,44.517A1.517,1.517,0,0,0,44.583,43H38.517a1.517,1.517,0,0,0,0,3.033h6.066A1.517,1.517,0,0,0,46.1,44.517Z" transform="translate(19.113 20.702)" fill="#0549eb"/>
          <path id="Shape-9" data-name="Shape" d="M15.066,49h-4.55a1.517,1.517,0,0,0,0,3.033h4.55a1.517,1.517,0,0,0,0-3.033Z" transform="translate(4.649 23.801)" fill="#0549eb"/>
          <path id="Shape-10" data-name="Shape" d="M17.133,53H6.517a1.517,1.517,0,0,0,0,3.033H17.133a1.517,1.517,0,0,0,0-3.033Z" transform="translate(2.583 25.868)" fill="#0549eb"/>
          <path id="Shape-11" data-name="Shape" d="M42.033,16.55v1.517A3.033,3.033,0,0,0,39,21.1v9.1a3.033,3.033,0,0,0,3.033,3.033h9.1A3.033,3.033,0,0,0,54.166,30.2V21.1a3.033,3.033,0,0,0-3.033-3.033V16.55a4.55,4.55,0,0,0-9.1,0Zm3.033,0a1.517,1.517,0,1,1,3.033,0v1.517H45.066Zm4.55,4.55h1.517v9.1h-9.1V21.1Z" transform="translate(20.146 4.688)" fill="#37def5"/>
          <circle id="Oval" cx="1.517" cy="1.517" r="1.517" transform="translate(65.213 28.821)" fill="#37def5"/>
          <path id="Shape-12" data-name="Shape" d="M48.1,56.583H40.517a1.517,1.517,0,0,0,0,3.033h9.1A1.517,1.517,0,0,0,51.133,58.1V50.517a1.517,1.517,0,0,0-3.033,0Z" transform="translate(20.146 23.801)" fill="#0549eb"/>
        </g>
      </g>
    </g>
  </g>
</svg>
