<svg xmlns="http://www.w3.org/2000/svg" width="91.46" height="91" viewBox="0 0 91.46 91">
  <g id="Group_11742" data-name="Group 11742" transform="translate(-1199 -1847)">
    <rect id="Rectangle_13957" data-name="Rectangle 13957" width="91" height="91" rx="8" transform="translate(1199.46 1847)" fill="none"/>
    <g id="svgexport-6_5_" data-name="svgexport-6 (5)" transform="translate(1199 1802.901)">
      <g id="Group_11741" data-name="Group 11741" transform="translate(0 53.1)">
        <path id="Path_12022" data-name="Path 12022" d="M89.834,60.911A6.825,6.825,0,0,0,85.161,58.5L20.754,53.124a6.869,6.869,0,0,0-7.415,6.252l-1.3,12.157H6.869A6.877,6.877,0,0,0,0,78.4v40.317a6.877,6.877,0,0,0,6.869,6.869H71.5a6.877,6.877,0,0,0,6.869-6.869v-6.54l2.293.191q.29.024.577.024a6.879,6.879,0,0,0,6.841-6.3l3.355-40.178a6.825,6.825,0,0,0-1.6-5.008ZM6.869,75.105H71.5a3.3,3.3,0,0,1,3.3,3.3v3.674H3.573V78.4a3.3,3.3,0,0,1,3.3-3.3Zm-3.3,10.543H74.8v7.411H3.573ZM71.5,122.016H6.869a3.3,3.3,0,0,1-3.3-3.3V96.632H74.8v22.087a3.3,3.3,0,0,1-3.3,3.3ZM87.875,65.622,84.52,105.8a3.3,3.3,0,0,1-3.56,3.011l-2.591-.216V78.4A6.877,6.877,0,0,0,71.5,71.533H15.636l1.257-11.8c0-.014,0-.027,0-.041a3.3,3.3,0,0,1,3.56-3.011l64.407,5.378a3.3,3.3,0,0,1,3.011,3.56Z" transform="translate(0 -53.1)" fill="#0549eb"/>
        <path id="Path_12023" data-name="Path 12023" d="M289.609,326.532H272.417a1.786,1.786,0,0,0-1.786,1.786v11.216a1.786,1.786,0,0,0,1.786,1.786h17.192a1.786,1.786,0,0,0,1.786-1.786V328.318A1.786,1.786,0,0,0,289.609,326.532Zm-1.786,11.216H274.2V330.1h13.619Z" transform="translate(-222.288 -277.688)" fill="#37def5"/>
      </g>
    </g>
  </g>
</svg>
