<svg xmlns="http://www.w3.org/2000/svg" width="91" height="91" viewBox="0 0 91 91">
  <g id="Group_47" data-name="Group 47" transform="translate(-1566 -2540)">
    <rect id="Rectangle_13957" data-name="Rectangle 13957" width="91" height="91" rx="8" transform="translate(1566 2540)" fill="none"/>
    <g id="svgexport-6_5_" data-name="svgexport-6 (5)" transform="translate(1558.258 2526)">
      <g id="Group_46" data-name="Group 46" transform="translate(8 16)">
        <path id="Path_106" data-name="Path 106" d="M93.62,20.391h-.732V17.464A1.464,1.464,0,0,0,91.424,16H85.57a1.464,1.464,0,0,0-1.464,1.464v2.927H75.325V17.464A1.464,1.464,0,0,0,73.861,16H68.007a1.464,1.464,0,0,0-1.464,1.464v2.927H57.762V17.464A1.464,1.464,0,0,0,56.3,16H50.444a1.464,1.464,0,0,0-1.464,1.464v2.927H40.2V17.464A1.464,1.464,0,0,0,38.735,16H32.881a1.464,1.464,0,0,0-1.464,1.464v2.927H22.636V17.464A1.464,1.464,0,0,0,21.172,16H15.318a1.464,1.464,0,0,0-1.464,1.464v2.927h-.732A5.128,5.128,0,0,0,8,25.513v64.4a5.128,5.128,0,0,0,5.123,5.123H31.884a30.679,30.679,0,0,0,42.974,0H93.62a5.128,5.128,0,0,0,5.123-5.123v-64.4A5.128,5.128,0,0,0,93.62,20.391Zm-6.586-1.464h2.927v5.854H87.033Zm-17.563,0H72.4v5.854H69.47Zm-17.563,0h2.927v5.854H51.907Zm-17.563,0h2.927v5.854H34.344Zm-17.563,0h2.927v5.854H16.781Zm36.59,81.961A27.808,27.808,0,1,1,81.179,73.08,27.84,27.84,0,0,1,53.371,100.888ZM95.815,89.911a2.2,2.2,0,0,1-2.2,2.2H77.493a30.735,30.735,0,1,0-48.243,0H13.123a2.2,2.2,0,0,1-2.2-2.2V32.1H95.815Zm0-60.739H10.927V25.513a2.2,2.2,0,0,1,2.2-2.2h.732v2.927a1.464,1.464,0,0,0,1.464,1.464h5.854a1.464,1.464,0,0,0,1.464-1.464V23.318h8.781v2.927a1.464,1.464,0,0,0,1.464,1.464h5.854A1.464,1.464,0,0,0,40.2,26.245V23.318H48.98v2.927a1.464,1.464,0,0,0,1.464,1.464H56.3a1.464,1.464,0,0,0,1.464-1.464V23.318h8.781v2.927a1.464,1.464,0,0,0,1.464,1.464h5.854a1.464,1.464,0,0,0,1.464-1.464V23.318h8.781v2.927a1.464,1.464,0,0,0,1.464,1.464h5.854a1.464,1.464,0,0,0,1.464-1.464V23.318h.732a2.2,2.2,0,0,1,2.2,2.2Z" transform="translate(-8 -16)" fill="#0549eb"/>
        <path id="Path_107" data-name="Path 107" d="M144.881,194.927a1.464,1.464,0,0,0,0-2.927A24.909,24.909,0,0,0,120,216.881a1.464,1.464,0,0,0,2.927,0A21.979,21.979,0,0,1,144.881,194.927Z" transform="translate(-99.51 -159.801)" fill="#37def5"/>
        <path id="Path_108" data-name="Path 108" d="M190.758,254.032a1.464,1.464,0,0,0-2.07,0l-17.594,17.594-4.14-4.14a1.464,1.464,0,0,0-2.07,0l-4.14,4.14a1.464,1.464,0,0,0,0,2.07l9.314,9.314a1.464,1.464,0,0,0,2.07,0L194.9,260.241a1.464,1.464,0,0,0,0-2.07ZM171.094,279.9l-7.245-7.245,2.07-2.07,4.14,4.14a1.464,1.464,0,0,0,2.07,0l17.594-17.593,2.07,2.07Z" transform="translate(-132.45 -210.134)" fill="#37def5"/>
      </g>
    </g>
  </g>
</svg>
