<svg xmlns="http://www.w3.org/2000/svg" width="91" height="91" viewBox="0 0 91 91">
  <g id="Group_43" data-name="Group 43" transform="translate(-1199 -1586)">
    <rect id="Rectangle_13957" data-name="Rectangle 13957" width="91" height="91" rx="8" transform="translate(1199 1586)" fill="none"/>
    <g id="svgexport-6_1_" data-name="svgexport-6 (1)" transform="translate(1199 1586)">
      <g id="Group_37" data-name="Group 37">
        <path id="Path_74" data-name="Path 74" d="M45.5,0A45.5,45.5,0,1,0,91,45.5,45.542,45.542,0,0,0,45.5,0ZM23.319,9.029c6.043,3.341,10.735,6.4,12.015,7.678,2.2,2.275,4.621,5.9,4.621,7.749,0,1.777-.071,4.977-.142,6.754l-4.266-.64c-1.422-2.275-3.555-5.4-6.541-10.1l-1.635-2.559a1.44,1.44,0,1,0-2.417,1.564l1.635,2.559c9.527,14.716,9.527,14.716,10.735,16.636,1.706,2.7.924,4.834-.355,5.616-1.92,1.209-3.626.5-5.119-1.209A5.826,5.826,0,0,1,31,41.945c-.569-.782-1.351-1.991-3.057-4.123-.64-.782-7.18-8.389-7.963-9.171a7.823,7.823,0,0,0-4.052-1.777c-2.133-.427-4.621-.924-6.825-3.484A42.91,42.91,0,0,1,23.319,9.029ZM13.01,29.148c.853.213,2.417.569,2.488.569-.355,2.133-.853,6.825.284,8.318.284.355,2.275,3.484,2.844,4.337a1.921,1.921,0,0,1-1.066,1.066,1.611,1.611,0,0,1-2.2-.64c-.924-1.422-4.123-7.82-4.195-9.029a23,23,0,0,1,1.848-4.621Zm7.82,11.3c-.5-.711-2.346-3.626-2.7-4.123a19.794,19.794,0,0,1,.071-5.4c.142.213.355.355.569.64,1,1.066,2.488,2.7,4.337,4.905ZM2.844,45.5A41.761,41.761,0,0,1,7.607,26.02a11.655,11.655,0,0,0,2.773,2.062c-.711,1.564-1.92,4.337-1.92,5.759,0,2.2,3.981,9.669,4.621,10.593A4.4,4.4,0,0,0,16.849,46.5h.569L14.574,51.4a1.378,1.378,0,0,0,.5,1.92l9.669,5.616a1.4,1.4,0,1,0,1.422-2.417l-8.389-4.905,7.394-12.726c.213.284.427.5.64.782,1.635,2.062,2.417,3.2,2.986,3.981A6.513,6.513,0,0,0,30,45.145a6.7,6.7,0,0,0,4.55,2.559,5.513,5.513,0,0,0,4.55-1.351,6.387,6.387,0,0,0,1.848-6.612l1.706.924a1.2,1.2,0,0,0,.711.213,1.376,1.376,0,0,0,1.209-.711,1.4,1.4,0,0,0-.569-1.92L38.462,35.12q-.32-.533-.853-1.28L48.13,35.547h.213a1.436,1.436,0,0,0,.284-2.844l-5.972-1c.071-1.706.142-5.261.142-7.252,0-3.412-3.555-7.891-5.4-9.811-1.848-1.848-7.536-5.19-11.162-7.252A42.957,42.957,0,0,1,45.5,2.844,42.515,42.515,0,0,1,74.577,14.361L14.361,74.648A42.825,42.825,0,0,1,2.844,45.5ZM45.5,88.156A42.515,42.515,0,0,1,16.423,76.639L76.639,16.352A42.653,42.653,0,0,1,45.5,88.156Z" fill="#0549eb"/>
        <path id="Path_75" data-name="Path 75" d="M94.626,53.416a1.58,1.58,0,0,0-.924-.569L76.426,49.79a1.408,1.408,0,1,0-.5,2.773l15.783,2.773L87.3,77.446l-5.83-1,3.768-6.825a1.4,1.4,0,0,0-.569-1.92L68.606,58.677a1.416,1.416,0,1,0-1.351,2.488l14.93,8.389L71.378,89.034,49.837,76.593a1.4,1.4,0,1,0-1.422,2.417L71.094,92.162a1.439,1.439,0,0,0,1.991-.569l6.9-12.512,8.176,1.351h.213a1.516,1.516,0,0,0,1.422-1.138l4.977-24.883a1.022,1.022,0,0,0-.142-1Z" transform="translate(-13.793 -14.385)" fill="#37def5"/>
      </g>
    </g>
  </g>
</svg>
