<svg id="svgexport-6_9_" data-name="svgexport-6 (9)" xmlns="http://www.w3.org/2000/svg" width="59.634" height="59.634" viewBox="0 0 59.634 59.634">
  <g id="surface1">
    <path id="Path_11689" data-name="Path 11689" d="M49.7,10.529V4.97A4.976,4.976,0,0,0,44.726,0H4.97A4.976,4.976,0,0,0,0,4.97V26.835a4.96,4.96,0,0,0,4.457,4.918l3.736,9.7A4.971,4.971,0,0,0,14.617,44.3l23.331-8.987a14.368,14.368,0,0,0,1.238,12.757l.571.913V58.64a.994.994,0,0,0,.994.994H58.64a.994.994,0,0,0,.994-.994V25.833a13.007,13.007,0,0,0-3.808-9.161Zm0,5.944,3.017,7.83A2.982,2.982,0,0,1,51,28.157l-1.724.666a4.971,4.971,0,0,0,.419-1.988ZM1.988,26.835V4.97A2.982,2.982,0,0,1,4.97,1.988H44.726A2.982,2.982,0,0,1,47.707,4.97v6.317H47.7l.009.023V26.835a3.023,3.023,0,0,1-.068.515l-9.1-9.105a5.3,5.3,0,0,0-7.653,7.333l3.881,4.239H4.97A2.982,2.982,0,0,1,1.988,26.835ZM14.721,31.8,7.653,34.526,6.607,31.8ZM13.9,42.447a2.982,2.982,0,0,1-3.854-1.71l-1.677-4.36L20.235,31.8V31.8H36.586l1.292,1.408Zm43.745,15.2h-15.9V49.7h15.9Zm0-9.939H41.3l-.431-.689a12.394,12.394,0,0,1-.252-12.729.994.994,0,0,0-.13-1.165l-8.145-8.885a3.315,3.315,0,0,1,4.786-4.584L52.968,35.489l1.405-1.405L50.7,30.407l1.02-.4a4.97,4.97,0,0,0,2.85-6.421L51.2,14.853l3.22,3.226a11.007,11.007,0,0,1,3.225,7.754Zm0,0" fill="#0549eb"/>
    <path id="Path_11690" data-name="Path 11690" d="M69.855,72.439a2.584,2.584,0,0,0,2.584-2.584V65.084A2.584,2.584,0,0,0,69.855,62.5H65.084A2.584,2.584,0,0,0,62.5,65.084v4.771a2.584,2.584,0,0,0,2.584,2.584Zm-5.367-2.584V68.463h1.988V66.476H64.488V65.084a.6.6,0,0,1,.6-.6h4.771a.6.6,0,0,1,.6.6v1.391H68.463v1.988h1.988v1.391a.6.6,0,0,1-.6.6H65.084A.6.6,0,0,1,64.488,69.855Zm0,0" transform="translate(-58.524 -58.524)" fill="#37def5"/>
    <path id="Path_11691" data-name="Path 11691" d="M78.125,265.625H82.1v1.988H78.125Zm0,0" transform="translate(-73.155 -248.729)" fill="#37def5"/>
    <path id="Path_11692" data-name="Path 11692" d="M78.125,359.375H82.1v1.988H78.125Zm0,0" transform="translate(-73.155 -336.515)" fill="#37def5"/>
    <path id="Path_11693" data-name="Path 11693" d="M359.375,359.375h3.976v1.988h-3.976Zm0,0" transform="translate(-336.515 -336.515)" fill="#37def5"/>
    <path id="Path_11694" data-name="Path 11694" d="M171.875,265.625h3.976v1.988h-3.976Zm0,0" transform="translate(-160.942 -248.729)" fill="#37def5"/>
    <path id="Path_11695" data-name="Path 11695" d="M265.625,265.625H269.6v1.988h-3.976Zm0,0" transform="translate(-248.729 -248.729)" fill="#37def5"/>
    <path id="Path_11696" data-name="Path 11696" d="M359.375,265.625h3.976v1.988h-3.976Zm0,0" transform="translate(-336.515 -248.729)" fill="#37def5"/>
    <path id="Path_11697" data-name="Path 11697" d="M656.25,78.125h1.988v2.982H656.25Zm0,0" transform="translate(-614.506 -73.155)" fill="#37def5"/>
    <path id="Path_11698" data-name="Path 11698" d="M593.75,78.125h1.988v2.982H593.75Zm0,0" transform="translate(-555.982 -73.155)" fill="#37def5"/>
    <path id="Path_11699" data-name="Path 11699" d="M531.25,78.125h1.988v2.982H531.25Zm0,0" transform="translate(-497.457 -73.155)" fill="#37def5"/>
    <path id="Path_11700" data-name="Path 11700" d="M468.75,78.125h1.988v2.982H468.75Zm0,0" transform="translate(-438.933 -73.155)" fill="#37def5"/>
    <path id="Path_11701" data-name="Path 11701" d="M687.5,812.5h1.988v1.988H687.5Zm0,0" transform="translate(-643.768 -760.817)" fill="#0549eb"/>
  </g>
</svg>
