<svg xmlns="http://www.w3.org/2000/svg" width="36.821" height="62" viewBox="0 0 36.821 62">
  <g id="svgexport-7_1_" data-name="svgexport-7 (1)" transform="translate(-138.65 -62.5)">
    <g id="Group_10451" data-name="Group 10451" transform="translate(138.65 62.5)">
      <g id="Group_10449" data-name="Group 10449" transform="translate(0 0)">
        <g id="Group_10447" data-name="Group 10447">
          <g id="Group_10446" data-name="Group 10446">
            <path id="Path_11672" data-name="Path 11672" d="M169.65,124.5H144.47a5.826,5.826,0,0,1-5.82-5.82V68.32a5.826,5.826,0,0,1,5.82-5.82h25.18a5.826,5.826,0,0,1,5.82,5.82V118.68A5.826,5.826,0,0,1,169.65,124.5ZM144.47,65.254a3.07,3.07,0,0,0-3.067,3.067V118.68a3.07,3.07,0,0,0,3.067,3.067h25.18a3.07,3.07,0,0,0,3.067-3.067V68.32a3.07,3.07,0,0,0-3.067-3.067H144.47Z" transform="translate(-138.65 -62.5)" fill="#0549eb"/>
          </g>
        </g>
        <g id="Group_10448" data-name="Group 10448" transform="translate(0 50.357)">
          <path id="Path_11673" data-name="Path 11673" d="M174.092,369.834H140.027a1.377,1.377,0,1,1,0-2.754h34.067a1.377,1.377,0,1,1,0,2.754Z" transform="translate(-138.65 -367.08)" fill="#0549eb"/>
        </g>
      </g>
      <g id="Group_10450" data-name="Group 10450" transform="translate(11.848 21.798)">
        <path id="Path_11674" data-name="Path 11674" d="M215.3,203.859a1.372,1.372,0,0,1-.974-.4l-3.606-3.606a1.377,1.377,0,0,1,1.948-1.948l2.632,2.632,5.788-5.788a1.377,1.377,0,1,1,1.948,1.948l-6.762,6.762A1.372,1.372,0,0,1,215.3,203.859Z" transform="translate(-210.313 -194.342)" fill="#37def5"/>
      </g>
    </g>
  </g>
</svg>
