<svg id="svgexport-6_11_" data-name="svgexport-6 (11)" xmlns="http://www.w3.org/2000/svg" width="62.002" height="62" viewBox="0 0 62.002 62">
  <path id="Path_11705" data-name="Path 11705" d="M8.745,24.124a.969.969,0,0,0-.969.969V38.958a.969.969,0,0,0,.969.969H31.337a.969.969,0,0,0,.969-.969V25.093a.969.969,0,0,0-.969-.969ZM30.369,37.989H9.714V26.062H30.369Z" transform="translate(2.268 7.036)" fill="#0549eb"/>
  <path id="Path_11706" data-name="Path 11706" d="M6.191,25.76a6.823,6.823,0,0,0,6.5-3.212,6.965,6.965,0,0,0,12.232.265,7.188,7.188,0,0,0,.975,1.31,7.028,7.028,0,0,0,10.2,0,7.188,7.188,0,0,0,.975-1.31,6.975,6.975,0,0,0,12.232-.266,6.861,6.861,0,0,0,12.449-5.425L58.512,5.147V.969A.969.969,0,0,0,57.543,0H4.452a.969.969,0,0,0-.965.969V5.156L.241,17.125A6.87,6.87,0,0,0,6.191,25.76Zm12.7-1.381A5.056,5.056,0,0,1,13.9,18.511L15.9,6.247H24.67L23.985,18.9h0l-.037.686a5.059,5.059,0,0,1-5.053,4.788ZM34.7,22.79a5.09,5.09,0,0,1-8.783-3.777l.04-.745L26.6,6.247h8.783l.646,12.022.04.745A5.044,5.044,0,0,1,34.7,22.79ZM46.957,22.6a5.058,5.058,0,0,1-8.9-3l-.037-.686h0L37.331,6.25H46.1L48.1,18.515A5.048,5.048,0,0,1,46.957,22.6Zm12.231-.877a4.934,4.934,0,0,1-8.933-2.009L48.065,6.247H56.8l3.083,11.385a4.925,4.925,0,0,1-.7,4.091ZM5.425,1.938h51.15V4.309H5.425ZM2.111,17.631,5.195,6.247h8.739l-1.35,8.3L11.99,18.2h0l-.245,1.513a4.934,4.934,0,1,1-9.633-2.081Z" transform="translate(0)" fill="#37def5"/>
  <path id="Path_11707" data-name="Path 11707" d="M61.031,49.626H58.513v-27.8a.969.969,0,1,0-1.937,0v27.8H53.326V26.045a.969.969,0,0,0-.969-.969H39.8a.969.969,0,0,0-.969.969V49.626H5.425V21.838a.969.969,0,0,0-1.938,0V49.626H.969A.969.969,0,0,0,0,50.594v4.353a.969.969,0,0,0,.969.969H61.031A.969.969,0,0,0,62,54.947V50.594A.969.969,0,0,0,61.031,49.626ZM40.77,27.014H51.389V49.626H40.77ZM60.063,53.979H1.937V51.563H60.063Z" transform="translate(0 6.084)" fill="#0549eb"/>
</svg>
