<svg xmlns="http://www.w3.org/2000/svg" width="61.429" height="61.634" viewBox="0 0 61.429 61.634">
  <g id="svgexport-6_14_" data-name="svgexport-6 (14)" transform="translate(-0.853)">
    <g id="Group_10479" data-name="Group 10479" transform="translate(38.972)">
      <g id="Group_10478" data-name="Group 10478">
        <path id="Path_11716" data-name="Path 11716" d="M324.935,6.172a.9.9,0,0,0-1.25-.25l-1.483.989V.9a.9.9,0,1,0-1.8,0V6.911l-1.483-.989a.9.9,0,0,0-1,1.5l2.88,1.919a.909.909,0,0,0,1.012,0l2.879-1.92A.9.9,0,0,0,324.935,6.172Z" transform="translate(-317.513 0)" fill="#37def5"/>
      </g>
    </g>
    <g id="Group_10481" data-name="Group 10481" transform="translate(7.236 17.311)">
      <g id="Group_10480" data-name="Group 10480">
        <path id="Path_11717" data-name="Path 11717" d="M61.3,149.972a.9.9,0,0,0-1.25-.25l-1.483.989V144.7a.9.9,0,0,0-1.8,0v6.009l-1.483-.989a.9.9,0,0,0-1,1.5l2.879,1.92a.909.909,0,0,0,1.012,0l2.879-1.92A.9.9,0,0,0,61.3,149.972Z" transform="translate(-53.877 -143.8)" fill="#37def5"/>
      </g>
    </g>
    <g id="Group_10483" data-name="Group 10483" transform="translate(47.628 27.889)">
      <g id="Group_10482" data-name="Group 10482">
        <path id="Path_11718" data-name="Path 11718" d="M396.835,237.851a.9.9,0,0,0-1.25-.25l-1.483.989v-6.009a.9.9,0,0,0-1.8,0v6.009l-1.483-.989a.9.9,0,0,0-1,1.5l2.879,1.92a.909.909,0,0,0,1.012,0l2.879-1.92A.9.9,0,0,0,396.835,237.851Z" transform="translate(-389.413 -231.679)" fill="#37def5"/>
      </g>
    </g>
    <g id="Group_10485" data-name="Group 10485" transform="translate(20.7 9.557)">
      <g id="Group_10484" data-name="Group 10484">
        <path id="Path_11719" data-name="Path 11719" d="M176.245,79.39a10.519,10.519,0,1,0,10.519,10.519A10.531,10.531,0,0,0,176.245,79.39Zm0,19.234a8.715,8.715,0,1,1,8.715-8.715A8.725,8.725,0,0,1,176.245,98.624Z" transform="translate(-165.726 -79.39)" fill="#37def5"/>
      </g>
    </g>
    <g id="Group_10487" data-name="Group 10487" transform="translate(27.817 12.923)">
      <g id="Group_10486" data-name="Group 10486">
        <path id="Path_11720" data-name="Path 11720" d="M230.745,113.529a.9.9,0,0,0,.9-.9V112a2.781,2.781,0,0,0-2.5-2.763v-.988a.9.9,0,1,0-1.8,0v1.031a3.089,3.089,0,0,0,.589,6.122h.625a1.286,1.286,0,0,1,0,2.573h-.938a.975.975,0,0,1-.974-.974.9.9,0,1,0-1.8,0,2.781,2.781,0,0,0,2.5,2.763v.988a.9.9,0,0,0,1.8,0v-1.031a3.089,3.089,0,0,0-.589-6.122h-.625a1.286,1.286,0,0,1,0-2.573h.938a.975.975,0,0,1,.974.974v.625A.9.9,0,0,0,230.745,113.529Z" transform="translate(-224.842 -107.35)" fill="#37def5"/>
      </g>
    </g>
    <g id="Group_10489" data-name="Group 10489" transform="translate(0.853 35.789)">
      <g id="Group_10488" data-name="Group 10488">
        <path id="Path_11721" data-name="Path 11721" d="M62.13,307.317l-1.713-2.57a4.748,4.748,0,0,0-6.585-1.317l-11,7.332H34.786L30.158,306.8h7.18a4.748,4.748,0,1,0,0-9.5h-24.4a.9.9,0,1,0,0,1.8h24.4a2.945,2.945,0,1,1,0,5.89H23.874a.9.9,0,1,0,0,1.8h3.513l6.479,5.553a.9.9,0,0,0,.587.217h8.655a.9.9,0,0,0,.5-.151l11.225-7.483a2.945,2.945,0,0,1,4.084.817l1.235,1.852-13.569,9.95-18.8,3.759-19-6.65-.011,0-.053-.016-.036-.009-.045-.008-.048-.007-.035,0-.057,0H1.755a.9.9,0,1,0,0,1.8H8.333l19.089,6.681a.9.9,0,0,0,.475.033l19.234-3.847a.9.9,0,0,0,.356-.157l14.426-10.579A.9.9,0,0,0,62.13,307.317Z" transform="translate(-0.853 -297.299)" fill="#0549eb"/>
      </g>
    </g>
    <g id="Group_10491" data-name="Group 10491" transform="translate(0.853 35.789)">
      <g id="Group_10490" data-name="Group 10490">
        <path id="Path_11722" data-name="Path 11722" d="M8.487,297.3H1.755a.9.9,0,1,0,0,1.8H8.487a.9.9,0,0,0,0-1.8Z" transform="translate(-0.853 -297.298)" fill="#0549eb"/>
      </g>
    </g>
  </g>
</svg>
