<svg xmlns="http://www.w3.org/2000/svg" width="52.543" height="62" viewBox="0 0 52.543 62">
  <g id="svgexport-6_7_" data-name="svgexport-6 (7)" transform="translate(-15.359)">
    <g id="Group_10453" data-name="Group 10453" transform="translate(34.21)">
      <g id="Group_10452" data-name="Group 10452">
        <path id="Path_11675" data-name="Path 11675" d="M92.854,7.661A8.933,8.933,0,0,0,76.8,3.669a1.05,1.05,0,1,0,1.7,1.239,6.832,6.832,0,0,1,12.282,3.05,1.052,1.052,0,0,0,1.039.9,1.125,1.125,0,0,0,.15-.01A1.051,1.051,0,0,0,92.854,7.661Z" transform="translate(-76.593)" fill="#0549eb"/>
      </g>
    </g>
    <g id="Group_10455" data-name="Group 10455" transform="translate(17.46 13.661)">
      <g id="Group_10454" data-name="Group 10454" transform="translate(0)">
        <path id="Path_11676" data-name="Path 11676" d="M70.374,50.136l-3.153-5.254a1.05,1.05,0,0,0-.9-.51H63.3a1.051,1.051,0,0,0,0,2.1h2.426l1.892,3.153H25.092l1.892-3.153H28.1a1.051,1.051,0,0,0,0-2.1H26.388a1.05,1.05,0,0,0-.9.51l-3.153,5.254a1.051,1.051,0,0,0,.9,1.592H69.473a1.051,1.051,0,0,0,.9-1.592Z" transform="translate(-22.185 -44.372)" fill="#0549eb"/>
      </g>
    </g>
    <g id="Group_10457" data-name="Group 10457" transform="translate(43.062 5.888)">
      <g id="Group_10456" data-name="Group 10456">
        <path id="Path_11677" data-name="Path 11677" d="M122.693,22.973a1.049,1.049,0,0,0-.654-.469l-14.325-3.35a1.05,1.05,0,0,0-1.263.784l-1.08,4.618a1.051,1.051,0,0,0,2.046.478l.841-3.594,12.279,2.872-1.929,8.249a1.05,1.05,0,0,0,.784,1.262,1.063,1.063,0,0,0,.241.028,1.049,1.049,0,0,0,1.021-.811l2.169-9.272A1.047,1.047,0,0,0,122.693,22.973Z" transform="translate(-105.343 -19.126)" fill="#0549eb"/>
      </g>
    </g>
    <g id="Group_10459" data-name="Group 10459" transform="translate(21.558 3.194)">
      <g id="Group_10458" data-name="Group 10458">
        <path id="Path_11678" data-name="Path 11678" d="M56.122,19.4l-.957-8.1A1.051,1.051,0,0,0,54,10.381L36.421,12.458a1.051,1.051,0,0,0-.92,1.167l1.6,13.507a1.051,1.051,0,0,0,1.042.928,1.148,1.148,0,0,0,.125-.007,1.051,1.051,0,0,0,.92-1.167L37.712,14.421,53.2,12.591l.834,7.055a1.051,1.051,0,0,0,2.087-.246Z" transform="translate(-35.494 -10.374)" fill="#0549eb"/>
      </g>
    </g>
    <g id="Group_10461" data-name="Group 10461" transform="translate(29.409 10.089)">
      <g id="Group_10460" data-name="Group 10460">
        <path id="Path_11679" data-name="Path 11679" d="M82.084,42.248,80,33.574a1.05,1.05,0,0,0-1.267-.776L61.8,36.869a1.051,1.051,0,0,0-.776,1.267l1.042,4.335a1.051,1.051,0,1,0,2.043-.491l-.8-3.314L78.2,35.088l1.84,7.652a1.051,1.051,0,0,0,2.044-.492Z" transform="translate(-60.997 -32.769)" fill="#0549eb"/>
      </g>
    </g>
    <g id="Group_10463" data-name="Group 10463" transform="translate(15.359 18.916)">
      <g id="Group_10462" data-name="Group 10462" transform="translate(0)">
        <path id="Path_11680" data-name="Path 11680" d="M65.8,62.438a1.051,1.051,0,0,0-1.05-1H18.512a1.051,1.051,0,0,0-1.05,1l-2.1,40.983a1.051,1.051,0,0,0,1.05,1.1H66.85a1.051,1.051,0,0,0,1.05-1.1ZM17.515,102.424l1.994-38.881H63.75l1.994,38.881Z" transform="translate(-15.359 -61.441)" fill="#0549eb"/>
      </g>
    </g>
    <g id="Group_10465" data-name="Group 10465" transform="translate(46.359 23.119)">
      <g id="Group_10464" data-name="Group 10464">
        <path id="Path_11681" data-name="Path 11681" d="M119.2,75.093a3.153,3.153,0,1,0,3.153,3.153A3.156,3.156,0,0,0,119.2,75.093Zm0,4.2a1.051,1.051,0,1,1,1.051-1.051A1.052,1.052,0,0,1,119.2,79.3Z" transform="translate(-116.052 -75.093)" fill="#37def5"/>
      </g>
    </g>
    <g id="Group_10467" data-name="Group 10467" transform="translate(30.596 23.119)">
      <g id="Group_10466" data-name="Group 10466">
        <path id="Path_11682" data-name="Path 11682" d="M68,75.093a3.153,3.153,0,1,0,3.153,3.153A3.156,3.156,0,0,0,68,75.093Zm0,4.2a1.051,1.051,0,1,1,1.051-1.051A1.052,1.052,0,0,1,68,79.3Z" transform="translate(-64.852 -75.093)" fill="#37def5"/>
      </g>
    </g>
    <g id="Group_10469" data-name="Group 10469" transform="translate(32.698 26.271)">
      <g id="Group_10468" data-name="Group 10468">
        <path id="Path_11683" data-name="Path 11683" d="M88.492,85.333h-.081a1.051,1.051,0,0,0-1.051,1.051,1.039,1.039,0,0,0,.081.405v5.374a6.831,6.831,0,1,1-13.661,0V86.384a1.051,1.051,0,0,0-2.1,0v5.78a8.932,8.932,0,0,0,17.864,0v-5.78A1.051,1.051,0,0,0,88.492,85.333Z" transform="translate(-71.679 -85.333)" fill="#37def5"/>
      </g>
    </g>
  </g>
</svg>
