<svg xmlns="http://www.w3.org/2000/svg" width="62.634" height="62.634" viewBox="0 0 62.634 62.634">
  <g id="svgexport-6_8_" data-name="svgexport-6 (8)" transform="translate(-1 -1)">
    <g id="bearer_bonds_x2C__income_x2C__payment_x2C__securities" transform="translate(1 1)">
      <g id="XMLID_67_">
        <g id="XMLID_72_">
          <g id="XMLID_348_">
            <g id="XMLID_349_">
              <g id="XMLID_402_" transform="translate(0 54.283)">
                <g id="XMLID_403_">
                  <path id="XMLID_404_" d="M2.044,27A1.044,1.044,0,0,0,1,28.044v2.088a5.224,5.224,0,0,0,5.22,5.22H8.307a1.044,1.044,0,1,0,0-2.088H6.22a3.136,3.136,0,0,1-3.132-3.132V28.044A1.044,1.044,0,0,0,2.044,27Z" transform="translate(-1 -27)" fill="#0549eb"/>
                </g>
              </g>
              <g id="XMLID_374_" transform="translate(4.176)">
                <g id="XMLID_400_">
                  <path id="XMLID_401_" d="M16.049,3.088H12.4A3.136,3.136,0,0,0,9.263,6.22v52.2a5.2,5.2,0,0,1-1.046,3.132H45.8a3.136,3.136,0,0,0,3.132-3.132,1.044,1.044,0,1,1,2.088,0,5.224,5.224,0,0,1-5.22,5.22H4.044a1.044,1.044,0,1,1,0-2.088,3.136,3.136,0,0,0,3.132-3.132V6.22A5.224,5.224,0,0,1,12.4,1h3.654Z" transform="translate(-3 -1)" fill="#0549eb"/>
                </g>
              </g>
              <g id="XMLID_350_" transform="translate(12.527)">
                <g id="XMLID_351_">
                  <path id="XMLID_353_" d="M57.107,6.22V8.307a1.044,1.044,0,0,1-1.044,1.044H12.22a1.044,1.044,0,0,1-1.044-1.044V6.22A3.136,3.136,0,0,0,8.044,3.088,1.044,1.044,0,1,1,8.044,1H51.888A5.224,5.224,0,0,1,57.107,6.22Zm-43.844,0V7.263H55.02V6.22a3.136,3.136,0,0,0-3.132-3.132H12.217A5.2,5.2,0,0,1,13.263,6.22Z" transform="translate(-7 -1)" fill="#0549eb"/>
                </g>
              </g>
            </g>
          </g>
          <g id="XMLID_75_" transform="translate(50.107 10.439)">
            <path id="XMLID_79_" d="M27.088,7.044V19.571a1.044,1.044,0,1,1-2.088,0V7.044a1.044,1.044,0,0,1,2.088,0Z" transform="translate(-25 -6)" fill="#0549eb"/>
          </g>
          <g id="XMLID_338_" transform="translate(14.615 20.878)">
            <path id="XMLID_345_" d="M9.044,11H23.659a1.044,1.044,0,0,1,0,2.088H9.044a1.044,1.044,0,0,1,0-2.088Z" transform="translate(-8 -11)" fill="#0549eb"/>
          </g>
          <g id="XMLID_268_" transform="translate(14.615 16.702)">
            <path id="XMLID_336_" d="M9.044,9H17.4a1.044,1.044,0,1,1,0,2.088H9.044A1.044,1.044,0,0,1,9.044,9Z" transform="translate(-8 -9)" fill="#0549eb"/>
          </g>
          <g id="XMLID_132_" transform="translate(27.142 16.702)">
            <path id="XMLID_267_" d="M15.044,9h16.7a1.044,1.044,0,0,1,0,2.088h-16.7a1.044,1.044,0,1,1,0-2.088Z" transform="translate(-14 -9)" fill="#0549eb"/>
          </g>
          <g id="XMLID_118_" transform="translate(14.615 12.527)">
            <path id="XMLID_119_" d="M9.044,7h18.79a1.044,1.044,0,1,1,0,2.088H9.044A1.044,1.044,0,0,1,9.044,7Z" transform="translate(-8 -7)" fill="#0549eb"/>
          </g>
          <g id="XMLID_116_" transform="translate(37.581 12.527)">
            <path id="XMLID_117_" d="M20.044,7h6.263a1.044,1.044,0,0,1,0,2.088H20.044a1.044,1.044,0,1,1,0-2.088Z" transform="translate(-19 -7)" fill="#0549eb"/>
          </g>
        </g>
        <path id="Path_11684" data-name="Path 11684" d="M56.064,41.142H8.044a1.044,1.044,0,1,1,0-2.088H55.02V16.088H13.263V27.571a1.044,1.044,0,1,1-2.088,0V15.044A1.044,1.044,0,0,1,12.22,14H56.064a1.044,1.044,0,0,1,1.044,1.044V40.1A1.044,1.044,0,0,1,56.064,41.142Z" transform="translate(5.527 13.142)" fill="#37def5"/>
        <g id="Group_10470" data-name="Group 10470" transform="translate(20.878 31.317)">
          <path id="Path_11685" data-name="Path 11685" d="M43.468,34.79H16.113a1.044,1.044,0,0,1-1.029-.871A5.19,5.19,0,0,0,11.7,29.894a1.044,1.044,0,0,1-.7-.983v-7.03a1.044,1.044,0,0,1,.7-.983,5.19,5.19,0,0,0,3.389-4.025A1.044,1.044,0,0,1,16.113,16H43.468a1.044,1.044,0,0,1,1.029.871A5.191,5.191,0,0,0,47.885,20.9a1.044,1.044,0,0,1,.7.983v7.03a1.044,1.044,0,0,1-.7.983A5.19,5.19,0,0,0,44.5,33.918,1.044,1.044,0,0,1,43.468,34.79ZM16.942,32.7h25.7a7.289,7.289,0,0,1,3.854-4.489V22.577a7.3,7.3,0,0,1-3.854-4.489h-25.7a7.289,7.289,0,0,1-3.854,4.489v5.637A7.3,7.3,0,0,1,16.942,32.7Z" transform="translate(-11 -16)" fill="#37def5"/>
        </g>
        <g id="Group_10471" data-name="Group 10471" transform="translate(34.449 35.493)">
          <path id="Path_11686" data-name="Path 11686" d="M22.72,28.439a5.22,5.22,0,1,1,5.22-5.22A5.225,5.225,0,0,1,22.72,28.439Zm0-8.351a3.132,3.132,0,1,0,3.132,3.132A3.136,3.136,0,0,0,22.72,20.088Z" transform="translate(-17.5 -18)" fill="#37def5"/>
        </g>
        <g id="Group_10473" data-name="Group 10473" transform="translate(12.527 43.844)">
          <g id="Group_10472" data-name="Group 10472">
            <path id="XMLID_69_" d="M7.5,22.5h0Z" transform="translate(-6.456 -21.456)" fill="#37def5"/>
            <path id="Path_11687" data-name="Path 11687" d="M12.22,24.088H8.044a1.044,1.044,0,1,1,0-2.088H12.22a1.044,1.044,0,1,1,0,2.088Z" transform="translate(-7 -22)" fill="#37def5"/>
          </g>
          <path id="Path_11688" data-name="Path 11688" d="M15.307,26.088H9.044a1.044,1.044,0,1,1,0-2.088h6.263a1.044,1.044,0,1,1,0,2.088Z" transform="translate(-5.912 -19.824)" fill="#37def5"/>
        </g>
      </g>
    </g>
  </g>
</svg>
