<svg id="svgexport-6_13_" data-name="svgexport-6 (13)" xmlns="http://www.w3.org/2000/svg" width="61.634" height="61.634" viewBox="0 0 61.634 61.634">
  <g id="Group_10477" data-name="Group 10477" transform="translate(0 0)">
    <g id="Design_25_" transform="translate(0 0)">
      <path id="Path_11709" data-name="Path 11709" d="M4.165,61.634A4.166,4.166,0,0,0,8.329,57.47a4.04,4.04,0,0,0-.745-2.24L21.456,41.357A13.922,13.922,0,0,0,40.2,41.341c.017.017.008.042.025.058l7.733,7.733a4.041,4.041,0,0,0-.745,2.24,4.165,4.165,0,1,0,4.165-4.165,4.04,4.04,0,0,0-2.24.745L41.4,40.22c-.017-.017-.042-.008-.058-.025a13.922,13.922,0,0,0,.017-18.744l7.209-7.209a3.989,3.989,0,0,0,2.236.75,4.165,4.165,0,1,0-4.165-4.165,4.04,4.04,0,0,0,.745,2.24l-7.209,7.209a13.918,13.918,0,0,0-18.723,0l-2.445-2.445a10.713,10.713,0,0,0,2.644-7,10.961,10.961,0,1,0-3.819,8.184l2.445,2.445a13.912,13.912,0,0,0,0,18.723L6.4,54.051a4.073,4.073,0,0,0-2.24-.745,4.164,4.164,0,1,0,0,8.329ZM53.872,51.373a2.5,2.5,0,1,1-2.5-2.5A2.5,2.5,0,0,1,53.872,51.373ZM50.807,8.329a2.5,2.5,0,1,1-2.5,2.5,2.5,2.5,0,0,1,2.5-2.5Zm-49.141,2.5A9.162,9.162,0,1,1,17.3,17.3h0v0A9.155,9.155,0,0,1,1.666,10.828Zm29.151,7.5A12.493,12.493,0,1,1,18.324,30.817,12.509,12.509,0,0,1,30.817,18.324ZM4.165,54.971a2.5,2.5,0,1,1-2.5,2.5A2.5,2.5,0,0,1,4.165,54.971Z" transform="translate(0 0)" fill="#0549eb"/>
      <path id="Path_11710" data-name="Path 11710" d="M171.189,175.352a4.165,4.165,0,1,0-4.165-4.165A4.166,4.166,0,0,0,171.189,175.352Zm0-6.663a2.5,2.5,0,1,1-2.5,2.5A2.5,2.5,0,0,1,171.189,168.689Z" transform="translate(-140.371 -140.371)" fill="#37def5"/>
      <path id="Path_11711" data-name="Path 11711" d="M45.921,41.756a4.165,4.165,0,1,0,4.164,4.165,4.166,4.166,0,0,0-4.164-4.165Zm0,6.663a2.5,2.5,0,1,1,2.5-2.5A2.5,2.5,0,0,1,45.921,48.419Z" transform="translate(-35.093 -35.093)" fill="#37def5"/>
      <path id="Path_11712" data-name="Path 11712" d="M.833,273.081H7.5a.833.833,0,1,0,0-1.666H.833a.833.833,0,1,0,0,1.666Z" transform="translate(0 -228.104)" fill="#37def5"/>
      <path id="Path_11713" data-name="Path 11713" d="M.833,168.689H7.5a.833.833,0,1,0,0-1.666H.833a.833.833,0,1,0,0,1.666Z" transform="translate(0 -140.371)" fill="#37def5"/>
      <path id="Path_11714" data-name="Path 11714" d="M341.544,125.268h-6.663a.833.833,0,0,0,0,1.666h6.663a.833.833,0,1,0,0-1.666Z" transform="translate(-280.743 -105.279)" fill="#37def5"/>
      <path id="Path_11715" data-name="Path 11715" d="M341.544,250.537h-6.663a.833.833,0,1,0,0,1.666h6.663a.833.833,0,1,0,0-1.666Z" transform="translate(-280.743 -210.558)" fill="#37def5"/>
    </g>
  </g>
</svg>
